<svg width="45" height="45" viewBox="0 0 45 45" fill="none" xmlns="http://www.w3.org/2000/svg">
<path d="M22.5 16.8821C23.6125 16.8821 24.7001 17.212 25.6251 17.8301C26.5501 18.4481 27.2711 19.3267 27.6968 20.3545C28.1226 21.3823 28.234 22.5133 28.0169 23.6045C27.7999 24.6956 27.2641 25.6979 26.4775 26.4846C25.6908 27.2712 24.6885 27.807 23.5974 28.024C22.5062 28.241 21.3752 28.1296 20.3474 27.7039C19.3196 27.2782 18.4411 26.5572 17.823 25.6322C17.2049 24.7071 16.875 23.6196 16.875 22.5071C16.8769 21.0158 17.4701 19.5861 18.5246 18.5317C19.5791 17.4772 21.0087 16.8839 22.5 16.8821ZM22.5 14.0696C20.8312 14.0696 19.1999 14.5644 17.8124 15.4916C16.4248 16.4187 15.3434 17.7364 14.7048 19.2782C14.0662 20.8199 13.8991 22.5164 14.2246 24.1532C14.5502 25.7899 15.3538 27.2933 16.5338 28.4733C17.7138 29.6533 19.2172 30.4569 20.8539 30.7825C22.4906 31.108 24.1871 30.9409 25.7289 30.3023C27.2706 29.6637 28.5884 28.5822 29.5155 27.1947C30.4427 25.8072 30.9375 24.1759 30.9375 22.5071C30.9375 20.2693 30.0486 18.1232 28.4662 16.5409C26.8839 14.9585 24.7378 14.0696 22.5 14.0696Z" fill="white"/>
<path d="M7.58521 9.58066L9.57364 7.59082L14.504 12.5211L12.5155 14.5096L7.58521 9.58066Z" fill="white"/>
<path d="M2.8125 21.1008H9.84375V23.9133H2.8125V21.1008Z" fill="white"/>
<path d="M7.58521 35.4332L12.5155 30.5029L14.504 32.4928L9.57364 37.4217L7.58521 35.4332Z" fill="white"/>
<path d="M21.0938 35.1633H23.9062V42.1946H21.0938V35.1633Z" fill="white"/>
<path d="M30.4973 32.4928L32.4858 30.5029L37.4161 35.4332L35.4276 37.4217L30.4973 32.4928Z" fill="white"/>
<path d="M35.1562 21.1008H42.1875V23.9133H35.1562V21.1008Z" fill="white"/>
<path d="M30.4973 12.5211L35.4276 7.59082L37.4161 9.58066L32.4858 14.5096L30.4973 12.5211Z" fill="white"/>
<path d="M21.0938 2.81958H23.9062V9.85083H21.0938V2.81958Z" fill="white"/>
</svg>
